<svg width="55" height="44" viewBox="0 0 55 44" fill="none" xmlns="http://www.w3.org/2000/svg">
<path d="M3.47716 38.2924C3.08903 37.8953 2.78757 37.422 2.59185 36.9024C2.39613 36.3828 2.31041 35.8282 2.34012 35.2738V28.6682C2.34012 26.8634 1.69039 25.8993 0.390922 25.776C0.33759 25.7748 0.28503 25.763 0.236383 25.7411C0.187736 25.7192 0.143997 25.6877 0.10778 25.6486C0.0715622 25.6094 0.0436081 25.5633 0.0255862 25.5131C0.00756428 25.4629 -0.000155796 25.4096 0.00288702 25.3563V21.9137C-0.00408875 21.8575 0.00161548 21.8004 0.0195803 21.7467C0.0375452 21.693 0.0673142 21.644 0.1067 21.6033C0.146085 21.5627 0.194086 21.5313 0.247175 21.5116C0.300264 21.4919 0.357092 21.4844 0.413482 21.4895C1.71295 21.3602 2.36268 20.4066 2.36268 18.6289V12.1225C2.33128 11.5712 2.41405 11.0193 2.60582 10.5015C2.7976 9.9836 3.09423 9.51092 3.47716 9.11301C3.90428 8.72893 4.40339 8.43345 4.94556 8.24369C5.48773 8.05393 6.06217 7.97367 6.63558 8.00756H9.72181C9.77294 8.00696 9.82367 8.01658 9.87102 8.03587C9.91837 8.05515 9.96139 8.08371 9.99754 8.11987C10.0337 8.15602 10.0623 8.19904 10.0815 8.24639C10.1008 8.29374 10.1105 8.34447 10.1098 8.3956V12.2624C10.1114 12.3136 10.1021 12.3646 10.0827 12.412C10.0633 12.4594 10.0341 12.5022 9.99705 12.5376C9.9617 12.5751 9.91901 12.6048 9.87166 12.625C9.8243 12.6452 9.77329 12.6554 9.72181 12.655H9.23C9.02281 12.6556 8.81879 12.7059 8.63507 12.8016C8.45135 12.8974 8.2933 13.0359 8.17419 13.2054C7.87195 13.591 7.71252 14.0693 7.72298 14.559V19.4095C7.72298 21.5121 7.08678 22.8837 5.80988 23.538C5.70159 23.6012 5.70159 23.6643 5.80988 23.732C7.08528 24.3817 7.72298 25.7564 7.72298 27.856V32.8193C7.71177 33.3091 7.87128 33.7877 8.17419 34.1729C8.29307 34.343 8.45097 34.4821 8.63465 34.5787C8.81834 34.6752 9.02249 34.7264 9.23 34.7278H9.7173C9.76849 34.7266 9.81938 34.7359 9.86675 34.7554C9.91413 34.7748 9.95696 34.8038 9.99254 34.8406C10.0296 34.876 10.0588 34.9188 10.0782 34.9663C10.0976 35.0137 10.1069 35.0647 10.1053 35.1159V38.9827C10.1059 39.0338 10.0963 39.0845 10.077 39.1319C10.0577 39.1793 10.0292 39.2223 9.99303 39.2584C9.95688 39.2946 9.91386 39.3231 9.86651 39.3424C9.81916 39.3617 9.76843 39.3713 9.7173 39.3707H6.63107C6.06024 39.4077 5.48774 39.3314 4.94647 39.1463C4.40521 38.9613 3.90587 38.6711 3.47716 38.2924ZM17.7577 11.6939C17.7825 11.7477 17.7953 11.8062 17.7953 11.8654C17.7953 11.9245 17.7825 11.983 17.7577 12.0368L15.4205 18.8049C15.4011 18.9015 15.3476 18.988 15.2698 19.0485C15.1919 19.109 15.0948 19.1394 14.9964 19.1342H11.5041C11.2198 19.1342 11.1025 18.9899 11.1431 18.7101L12.4426 11.9421C12.4651 11.7029 12.605 11.5856 12.8667 11.5856H17.478C17.5299 11.5795 17.5826 11.5861 17.6313 11.605C17.6801 11.6239 17.7235 11.6544 17.7577 11.6939Z" fill="#06B6D4"/>
<path d="M43.6373 11.6939C43.6633 11.7473 43.6768 11.806 43.6768 11.8654C43.6768 11.9248 43.6633 11.9834 43.6373 12.0368L41.3001 18.8049C41.2808 18.9015 41.2272 18.988 41.1494 19.0485C41.0715 19.109 40.9745 19.1394 40.876 19.1342H37.3656C37.0859 19.1342 36.964 18.9899 37.0092 18.7101L38.3086 11.9421C38.3312 11.7029 38.4711 11.5856 38.7328 11.5856H43.3441C43.3982 11.5762 43.4538 11.5813 43.5053 11.6003C43.5568 11.6193 43.6024 11.6516 43.6373 11.6939ZM45.1399 39.3888C45.0887 39.3894 45.038 39.3798 44.9906 39.3605C44.9433 39.3412 44.9003 39.3126 44.8641 39.2765C44.828 39.2403 44.7994 39.1973 44.7801 39.1499C44.7608 39.1026 44.7512 39.0519 44.7518 39.0007V35.1339C44.7503 35.0827 44.7595 35.0317 44.779 34.9843C44.7984 34.9369 44.8276 34.8941 44.8646 34.8587C44.9002 34.8219 44.943 34.7928 44.9904 34.7734C45.0378 34.754 45.0887 34.7446 45.1399 34.7459H45.6588C45.8661 34.7433 46.0698 34.6917 46.2533 34.5952C46.4368 34.4987 46.5949 34.3602 46.7146 34.1909C47.0178 33.8059 47.1774 33.3272 47.1658 32.8373V27.8741C47.1658 25.7955 47.7944 24.4208 49.0518 23.7501C49.1375 23.6824 49.1375 23.6192 49.0518 23.556C47.7974 22.8852 47.1688 21.5091 47.1658 19.4275V14.5681C47.1766 14.0782 47.0171 13.5998 46.7146 13.2145C46.5949 13.0455 46.4368 12.9074 46.2532 12.8117C46.0696 12.7159 45.8658 12.6653 45.6588 12.664H45.1399C45.0884 12.6644 45.0374 12.6542 44.99 12.634C44.9427 12.6138 44.9 12.5841 44.8646 12.5467C44.8276 12.5113 44.7984 12.4685 44.779 12.421C44.7595 12.3736 44.7503 12.3227 44.7518 12.2714V8.3956C44.7512 8.34447 44.7608 8.29374 44.7801 8.24639C44.7994 8.19904 44.828 8.15602 44.8641 8.11987C44.9003 8.08371 44.9433 8.05515 44.9906 8.03587C45.038 8.01658 45.0887 8.00696 45.1399 8.00756H48.2577C48.8311 7.97367 49.4055 8.05393 49.9477 8.24369C50.4899 8.43345 50.989 8.72893 51.4161 9.11301C51.8023 9.50939 52.1022 9.98139 52.2971 10.4993C52.492 11.0173 52.5777 11.5699 52.5486 12.1225V18.6199C52.5486 20.3976 53.1848 21.3271 54.4662 21.4805C54.5208 21.4788 54.5751 21.4889 54.6254 21.5102C54.6757 21.5314 54.7208 21.5632 54.7576 21.6035C54.7945 21.6438 54.8222 21.6915 54.8389 21.7435C54.8555 21.7955 54.8608 21.8504 54.8543 21.9046V25.3473C54.8573 25.4006 54.8496 25.4539 54.8316 25.5041C54.8135 25.5543 54.7856 25.6004 54.7494 25.6395C54.7132 25.6787 54.6694 25.7102 54.6208 25.7321C54.5721 25.7539 54.5196 25.7658 54.4662 25.7669C53.1848 25.8978 52.5486 26.8634 52.5486 28.6592V35.2648C52.5796 35.8207 52.4945 36.377 52.2987 36.8982C52.103 37.4195 51.8009 37.8943 51.4116 38.2923C50.9845 38.6764 50.4853 38.9719 49.9432 39.1617C49.401 39.3514 48.8266 39.4317 48.2532 39.3978L45.1399 39.3888Z" fill="#06B6D4"/>
<path d="M35.34 28.64C35.34 30.128 34.512 31.592 32.856 33.032C31.224 34.472 29.232 35.624 26.88 36.488C24.552 37.328 22.332 37.748 20.22 37.748C19.308 37.748 18.24 37.196 17.016 36.092C15.792 34.964 15.18 34.04 15.18 33.32C15.18 32.912 15.264 32.588 15.432 32.348C15.624 32.108 15.84 31.988 16.08 31.988C16.32 31.988 16.848 32.192 17.664 32.6C18.504 32.984 19.128 33.176 19.536 33.176C19.968 33.176 20.388 33.14 20.796 33.068C20.196 32.828 19.596 32.408 18.996 31.808C18.396 31.208 18.096 30.632 18.096 30.08C18.096 29.84 18.492 28.1 19.284 24.86C20.076 21.596 20.496 18.812 20.544 16.508C20.112 16.1 19.716 15.608 19.356 15.032C19.02 14.432 18.852 13.988 18.852 13.7C18.852 13.028 19.38 12.488 20.436 12.08C21.492 11.672 22.812 11.468 24.396 11.468C27.756 11.468 30.444 11.912 32.46 12.8C34.5 13.688 35.52 15.104 35.52 17.048C35.52 18.272 35.004 19.52 33.972 20.792C32.94 22.064 31.584 23.228 29.904 24.284L30.264 24.392C31.704 24.776 32.904 25.352 33.864 26.12C34.848 26.864 35.34 27.704 35.34 28.64ZM28.968 16.076C28.224 16.076 26.472 16.34 23.712 16.868C24.576 17.828 25.008 18.632 25.008 19.28C25.008 19.904 24.804 21.068 24.396 22.772C24.78 22.484 25.464 22.064 26.448 21.512C27.432 20.96 28.044 20.6 28.284 20.432C28.548 20.24 28.896 19.964 29.328 19.604C30.144 18.956 30.552 18.212 30.552 17.372C30.552 16.508 30.024 16.076 28.968 16.076ZM30.804 28.496C30.804 28.016 30.108 27.608 28.716 27.272C27.348 26.912 26.208 26.732 25.296 26.732C24.792 26.732 24.252 26.36 23.676 25.616C22.596 30.056 21.948 32.492 21.732 32.924C23.748 32.492 25.764 31.832 27.78 30.944C29.796 30.056 30.804 29.24 30.804 28.496Z" fill="#06B6D4"/>
</svg>
